<svg  viewBox="0 0 599 38" fill="none" xmlns="http://www.w3.org/2000/svg">
<path d="M103 21.5C104.381 21.5 105.5 20.3807 105.5 19C105.5 17.6193 104.381 16.5 103 16.5V21.5ZM1.23224 17.2322C0.255928 18.2085 0.255928 19.7915 1.23224 20.7678L17.1421 36.6777C18.1185 37.654 19.7014 37.654 20.6777 36.6777C21.654 35.7014 21.654 34.1184 20.6777 33.1421L6.53555 19L20.6777 4.85786C21.654 3.88155 21.654 2.29864 20.6777 1.32233C19.7014 0.34602 18.1185 0.34602 17.1421 1.32233L1.23224 17.2322ZM103 16.5L3.00001 16.5V21.5L103 21.5V16.5Z" fill="#FFFCF0"/>
<path d="M596 21.5C597.381 21.5 598.5 20.3807 598.5 19C598.5 17.6193 597.381 16.5 596 16.5V21.5ZM596 16.5L325 16.5V21.5L596 21.5V16.5Z" fill="#FFFCF0"/>
<path d="M138.397 29.243C137.371 29.243 136.345 29.207 135.319 29.135C134.311 29.081 133.258 28.937 132.16 28.703V10.559C133.024 10.397 133.969 10.28 134.995 10.208C136.021 10.118 136.975 10.073 137.857 10.073C139.045 10.073 140.134 10.163 141.124 10.343C142.132 10.505 142.996 10.793 143.716 11.207C144.436 11.621 144.994 12.17 145.39 12.854C145.804 13.52 146.011 14.348 146.011 15.338C146.011 16.832 145.291 18.011 143.851 18.875C145.039 19.325 145.849 19.937 146.281 20.711C146.713 21.485 146.929 22.358 146.929 23.33C146.929 25.292 146.209 26.768 144.769 27.758C143.347 28.748 141.223 29.243 138.397 29.243ZM136.264 20.846V25.679C136.57 25.715 136.903 25.742 137.263 25.76C137.623 25.778 138.019 25.787 138.451 25.787C139.711 25.787 140.728 25.607 141.502 25.247C142.276 24.887 142.663 24.221 142.663 23.249C142.663 22.385 142.339 21.773 141.691 21.413C141.043 21.035 140.116 20.846 138.91 20.846H136.264ZM136.264 17.633H138.316C139.612 17.633 140.539 17.471 141.097 17.147C141.655 16.805 141.934 16.265 141.934 15.527C141.934 14.771 141.646 14.24 141.07 13.934C140.494 13.628 139.648 13.475 138.532 13.475C138.172 13.475 137.785 13.484 137.371 13.502C136.957 13.502 136.588 13.52 136.264 13.556V17.633ZM155.458 26.192C155.854 26.192 156.232 26.183 156.592 26.165C156.952 26.147 157.24 26.12 157.456 26.084V23.033C157.294 22.997 157.051 22.961 156.727 22.925C156.403 22.889 156.106 22.871 155.836 22.871C155.458 22.871 155.098 22.898 154.756 22.952C154.432 22.988 154.144 23.069 153.892 23.195C153.64 23.321 153.442 23.492 153.298 23.708C153.154 23.924 153.082 24.194 153.082 24.518C153.082 25.148 153.289 25.589 153.703 25.841C154.135 26.075 154.72 26.192 155.458 26.192ZM155.134 14.42C156.322 14.42 157.312 14.555 158.104 14.825C158.896 15.095 159.526 15.482 159.994 15.986C160.48 16.49 160.822 17.102 161.02 17.822C161.218 18.542 161.317 19.343 161.317 20.225V28.595C160.741 28.721 159.94 28.865 158.914 29.027C157.888 29.207 156.646 29.297 155.188 29.297C154.27 29.297 153.433 29.216 152.677 29.054C151.939 28.892 151.3 28.631 150.76 28.271C150.22 27.893 149.806 27.407 149.518 26.813C149.23 26.219 149.086 25.49 149.086 24.626C149.086 23.798 149.248 23.096 149.572 22.52C149.914 21.944 150.364 21.485 150.922 21.143C151.48 20.801 152.119 20.558 152.839 20.414C153.559 20.252 154.306 20.171 155.08 20.171C155.602 20.171 156.061 20.198 156.457 20.252C156.871 20.288 157.204 20.342 157.456 20.414V20.036C157.456 19.352 157.249 18.803 156.835 18.389C156.421 17.975 155.701 17.768 154.675 17.768C153.991 17.768 153.316 17.822 152.65 17.93C151.984 18.02 151.408 18.155 150.922 18.335L150.409 15.095C150.643 15.023 150.931 14.951 151.273 14.879C151.633 14.789 152.02 14.717 152.434 14.663C152.848 14.591 153.28 14.537 153.73 14.501C154.198 14.447 154.666 14.42 155.134 14.42ZM164.279 21.899C164.279 20.873 164.441 19.91 164.765 19.01C165.107 18.092 165.593 17.3 166.223 16.634C166.853 15.95 167.618 15.41 168.518 15.014C169.418 14.618 170.444 14.42 171.596 14.42C172.352 14.42 173.045 14.492 173.675 14.636C174.305 14.762 174.917 14.951 175.511 15.203L174.674 18.416C174.296 18.272 173.882 18.146 173.432 18.038C172.982 17.93 172.478 17.876 171.92 17.876C170.732 17.876 169.841 18.245 169.247 18.983C168.671 19.721 168.383 20.693 168.383 21.899C168.383 23.177 168.653 24.167 169.193 24.869C169.751 25.571 170.714 25.922 172.082 25.922C172.568 25.922 173.09 25.877 173.648 25.787C174.206 25.697 174.719 25.553 175.187 25.355L175.754 28.649C175.286 28.847 174.701 29.018 173.999 29.162C173.297 29.306 172.523 29.378 171.677 29.378C170.381 29.378 169.265 29.189 168.329 28.811C167.393 28.415 166.619 27.884 166.007 27.218C165.413 26.552 164.972 25.769 164.684 24.869C164.414 23.951 164.279 22.961 164.279 21.899ZM182.477 19.928C182.873 19.496 183.278 19.046 183.692 18.578C184.124 18.11 184.538 17.651 184.934 17.201C185.33 16.733 185.699 16.292 186.041 15.878C186.401 15.464 186.707 15.104 186.959 14.798H191.738C190.784 15.896 189.848 16.949 188.93 17.957C188.03 18.947 187.04 19.973 185.96 21.035C186.5 21.521 187.058 22.106 187.634 22.79C188.21 23.456 188.768 24.149 189.308 24.869C189.848 25.589 190.343 26.309 190.793 27.029C191.243 27.749 191.621 28.406 191.927 29H187.31C187.022 28.532 186.689 28.019 186.311 27.461C185.951 26.885 185.564 26.318 185.15 25.76C184.736 25.184 184.295 24.635 183.827 24.113C183.377 23.591 182.927 23.15 182.477 22.79V29H178.454V8.696L182.477 8.048V19.928ZM200.442 11.261L204.465 10.613V14.798H209.298V18.146H204.465V23.141C204.465 23.987 204.609 24.662 204.897 25.166C205.203 25.67 205.806 25.922 206.706 25.922C207.138 25.922 207.579 25.886 208.029 25.814C208.497 25.724 208.92 25.607 209.298 25.463L209.865 28.595C209.379 28.793 208.839 28.964 208.245 29.108C207.651 29.252 206.922 29.324 206.058 29.324C204.96 29.324 204.051 29.18 203.331 28.892C202.611 28.586 202.035 28.172 201.603 27.65C201.171 27.11 200.865 26.462 200.685 25.706C200.523 24.95 200.442 24.113 200.442 23.195V11.261ZM225.33 21.872C225.33 22.988 225.168 24.014 224.844 24.95C224.52 25.868 224.052 26.66 223.44 27.326C222.828 27.974 222.09 28.478 221.226 28.838C220.38 29.198 219.426 29.378 218.364 29.378C217.32 29.378 216.366 29.198 215.502 28.838C214.656 28.478 213.927 27.974 213.315 27.326C212.703 26.66 212.226 25.868 211.884 24.95C211.542 24.014 211.371 22.988 211.371 21.872C211.371 20.756 211.542 19.739 211.884 18.821C212.244 17.903 212.73 17.12 213.342 16.472C213.972 15.824 214.71 15.32 215.556 14.96C216.42 14.6 217.356 14.42 218.364 14.42C219.39 14.42 220.326 14.6 221.172 14.96C222.036 15.32 222.774 15.824 223.386 16.472C223.998 17.12 224.475 17.903 224.817 18.821C225.159 19.739 225.33 20.756 225.33 21.872ZM221.226 21.872C221.226 20.63 220.974 19.658 220.47 18.956C219.984 18.236 219.282 17.876 218.364 17.876C217.446 17.876 216.735 18.236 216.231 18.956C215.727 19.658 215.475 20.63 215.475 21.872C215.475 23.114 215.727 24.104 216.231 24.842C216.735 25.562 217.446 25.922 218.364 25.922C219.282 25.922 219.984 25.562 220.47 24.842C220.974 24.104 221.226 23.114 221.226 21.872ZM244.032 22.007C244.032 20.765 243.753 19.775 243.195 19.037C242.637 18.281 241.809 17.903 240.711 17.903C240.351 17.903 240.018 17.921 239.712 17.957C239.406 17.975 239.154 18.002 238.956 18.038V25.301C239.208 25.463 239.532 25.598 239.928 25.706C240.342 25.814 240.756 25.868 241.17 25.868C243.078 25.868 244.032 24.581 244.032 22.007ZM248.136 21.899C248.136 22.997 248.001 23.996 247.731 24.896C247.461 25.796 247.065 26.57 246.543 27.218C246.021 27.866 245.373 28.37 244.599 28.73C243.825 29.09 242.934 29.27 241.926 29.27C241.368 29.27 240.846 29.216 240.36 29.108C239.874 29 239.406 28.847 238.956 28.649V33.995H234.933V15.284C235.293 15.176 235.707 15.077 236.175 14.987C236.643 14.879 237.129 14.789 237.633 14.717C238.155 14.645 238.677 14.591 239.199 14.555C239.739 14.501 240.252 14.474 240.738 14.474C241.908 14.474 242.952 14.654 243.87 15.014C244.788 15.356 245.562 15.851 246.192 16.499C246.822 17.129 247.299 17.903 247.623 18.821C247.965 19.739 248.136 20.765 248.136 21.899ZM256.655 26.192C257.051 26.192 257.429 26.183 257.789 26.165C258.149 26.147 258.437 26.12 258.653 26.084V23.033C258.491 22.997 258.248 22.961 257.924 22.925C257.6 22.889 257.303 22.871 257.033 22.871C256.655 22.871 256.295 22.898 255.953 22.952C255.629 22.988 255.341 23.069 255.089 23.195C254.837 23.321 254.639 23.492 254.495 23.708C254.351 23.924 254.279 24.194 254.279 24.518C254.279 25.148 254.486 25.589 254.9 25.841C255.332 26.075 255.917 26.192 256.655 26.192ZM256.331 14.42C257.519 14.42 258.509 14.555 259.301 14.825C260.093 15.095 260.723 15.482 261.191 15.986C261.677 16.49 262.019 17.102 262.217 17.822C262.415 18.542 262.514 19.343 262.514 20.225V28.595C261.938 28.721 261.137 28.865 260.111 29.027C259.085 29.207 257.843 29.297 256.385 29.297C255.467 29.297 254.63 29.216 253.874 29.054C253.136 28.892 252.497 28.631 251.957 28.271C251.417 27.893 251.003 27.407 250.715 26.813C250.427 26.219 250.283 25.49 250.283 24.626C250.283 23.798 250.445 23.096 250.769 22.52C251.111 21.944 251.561 21.485 252.119 21.143C252.677 20.801 253.316 20.558 254.036 20.414C254.756 20.252 255.503 20.171 256.277 20.171C256.799 20.171 257.258 20.198 257.654 20.252C258.068 20.288 258.401 20.342 258.653 20.414V20.036C258.653 19.352 258.446 18.803 258.032 18.389C257.618 17.975 256.898 17.768 255.872 17.768C255.188 17.768 254.513 17.822 253.847 17.93C253.181 18.02 252.605 18.155 252.119 18.335L251.606 15.095C251.84 15.023 252.128 14.951 252.47 14.879C252.83 14.789 253.217 14.717 253.631 14.663C254.045 14.591 254.477 14.537 254.927 14.501C255.395 14.447 255.863 14.42 256.331 14.42ZM269.581 21.44C269.581 23.69 270.49 24.815 272.308 24.815C272.722 24.815 273.109 24.761 273.469 24.653C273.829 24.545 274.135 24.419 274.387 24.275V17.849C274.189 17.813 273.955 17.786 273.685 17.768C273.415 17.732 273.1 17.714 272.74 17.714C271.678 17.714 270.886 18.065 270.364 18.767C269.842 19.469 269.581 20.36 269.581 21.44ZM278.41 27.218C278.41 29.54 277.816 31.259 276.628 32.375C275.458 33.509 273.64 34.076 271.174 34.076C270.31 34.076 269.446 33.995 268.582 33.833C267.718 33.689 266.917 33.491 266.179 33.239L266.881 29.864C267.511 30.116 268.168 30.314 268.852 30.458C269.554 30.602 270.346 30.674 271.228 30.674C272.38 30.674 273.19 30.422 273.658 29.918C274.144 29.414 274.387 28.766 274.387 27.974V27.461C273.955 27.659 273.505 27.812 273.037 27.92C272.587 28.01 272.092 28.055 271.552 28.055C269.59 28.055 268.087 27.479 267.043 26.327C265.999 25.157 265.477 23.528 265.477 21.44C265.477 20.396 265.639 19.451 265.963 18.605C266.287 17.741 266.755 17.003 267.367 16.391C267.997 15.779 268.762 15.311 269.662 14.987C270.562 14.645 271.579 14.474 272.713 14.474C273.199 14.474 273.694 14.501 274.198 14.555C274.72 14.591 275.233 14.645 275.737 14.717C276.241 14.789 276.718 14.879 277.168 14.987C277.636 15.077 278.05 15.176 278.41 15.284V27.218ZM281.508 22.007C281.508 20.747 281.697 19.649 282.075 18.713C282.471 17.759 282.984 16.967 283.614 16.337C284.244 15.707 284.964 15.23 285.774 14.906C286.602 14.582 287.448 14.42 288.312 14.42C290.328 14.42 291.921 15.041 293.091 16.283C294.261 17.507 294.846 19.316 294.846 21.71C294.846 21.944 294.837 22.205 294.819 22.493C294.801 22.763 294.783 23.006 294.765 23.222H285.639C285.729 24.05 286.116 24.707 286.8 25.193C287.484 25.679 288.402 25.922 289.554 25.922C290.292 25.922 291.012 25.859 291.714 25.733C292.434 25.589 293.019 25.418 293.469 25.22L294.009 28.487C293.793 28.595 293.505 28.703 293.145 28.811C292.785 28.919 292.38 29.009 291.93 29.081C291.498 29.171 291.03 29.243 290.526 29.297C290.022 29.351 289.518 29.378 289.014 29.378C287.736 29.378 286.62 29.189 285.666 28.811C284.73 28.433 283.947 27.92 283.317 27.272C282.705 26.606 282.246 25.823 281.94 24.923C281.652 24.023 281.508 23.051 281.508 22.007ZM290.958 20.468C290.94 20.126 290.877 19.793 290.769 19.469C290.679 19.145 290.526 18.857 290.31 18.605C290.112 18.353 289.851 18.146 289.527 17.984C289.221 17.822 288.834 17.741 288.366 17.741C287.916 17.741 287.529 17.822 287.205 17.984C286.881 18.128 286.611 18.326 286.395 18.578C286.179 18.83 286.008 19.127 285.882 19.469C285.774 19.793 285.693 20.126 285.639 20.468H290.958Z" fill="#FFFCF0"/>
</svg>
