<svg viewBox="0 0 108 108" fill="none" xmlns="http://www.w3.org/2000/svg">
<path d="M54.1934 107.074C83.3704 107.074 107.527 82.8651 107.527 53.7402C107.527 24.5635 83.3182 0.40625 54.1412 0.40625C25.0166 0.40625 0.859375 24.5635 0.859375 53.7402C0.859375 82.8651 25.0689 107.074 54.1934 107.074ZM54.1934 98.1856C29.5134 98.1856 9.8007 78.4206 9.8007 53.7402C9.8007 29.0603 29.4611 9.29528 54.1412 9.29528C78.8215 9.29528 98.6387 29.0603 98.6387 53.7402C98.6387 78.4206 78.8737 98.1856 54.1934 98.1856Z" fill="#FFFCF0"/>
<path d="M40.4941 77.6884C43.2131 77.6884 44.7294 75.9107 44.7294 72.9824V62.1064L51.1085 55.5183L66.3768 75.6493C67.4227 77.061 68.5208 77.6884 69.9847 77.6884C72.3375 77.6884 74.0108 76.0152 74.0108 73.7668C74.0108 72.7209 73.5927 71.5706 72.8083 70.5774L57.2263 50.1323L71.5536 35.3871C72.4946 34.3937 72.8605 33.5048 72.8605 32.3545C72.8605 30.4198 71.1872 28.7988 69.0433 28.7988C67.7364 28.7988 66.8476 29.2694 65.6446 30.4721L45.0431 51.4919H44.7294V33.5048C44.7294 30.5766 43.2131 28.7988 40.4941 28.7988C37.9319 28.7988 36.3633 30.5766 36.3633 33.5048V72.9824C36.3633 75.9107 37.9319 77.6884 40.4941 77.6884Z" fill="#FFFCF0"/>
</svg>
