<svg viewBox="0 0 91 101" fill="none" xmlns="http://www.w3.org/2000/svg">
<path d="M10.7917 100.084H80.2083C85.6774 100.084 90.125 95.636 90.125 90.167V15.792C90.125 10.3229 85.6774 5.87533 80.2083 5.87533H70.2917C70.2917 4.56029 69.7693 3.29912 68.8394 2.36925C67.9095 1.43939 66.6484 0.916992 65.3333 0.916992H25.6667C24.3516 0.916992 23.0905 1.43939 22.1606 2.36925C21.2307 3.29912 20.7083 4.56029 20.7083 5.87533H10.7917C5.32262 5.87533 0.875 10.3229 0.875 15.792V90.167C0.875 95.636 5.32262 100.084 10.7917 100.084ZM10.7917 15.792H20.7083V25.7087H70.2917V15.792H80.2083V90.167H10.7917V15.792Z" fill="white"/>
<path d="M40.542 58.3636L31.6517 49.4733L24.6406 56.4844L40.542 72.3858L66.36 46.5677L59.349 39.5566L40.542 58.3636Z" fill="white"/>
</svg>
