<svg width="29" height="29" viewBox="0 0 29 29" fill="none" xmlns="http://www.w3.org/2000/svg">
  <g clip-path="url(#a)" fill="currentColor" fill-opacity=".85">
    <path d="M14.04 25.99c6.538 0 11.952-5.425 11.952-11.953 0-6.539-5.425-11.953-11.964-11.953-6.528 0-11.942 5.414-11.942 11.953 0 6.527 5.426 11.953 11.953 11.953m0-1.992a9.913 9.913 0 0 1-9.95-9.96c0-5.532 4.406-9.962 9.938-9.962A9.933 9.933 0 0 1 24 14.037a9.923 9.923 0 0 1-9.96 9.961"/>
    <path d="M10.969 19.404c.61 0 .95-.398.95-1.054v-2.438l1.429-1.476 3.422 4.511c.234.317.48.457.808.457.528 0 .903-.375.903-.879a1.18 1.18 0 0 0-.27-.714l-3.492-4.582 3.211-3.305c.21-.223.293-.422.293-.68 0-.433-.375-.797-.856-.797-.293 0-.492.106-.761.375l-4.618 4.711h-.07V9.502c0-.656-.34-1.055-.949-1.055-.574 0-.926.399-.926 1.055v8.848c0 .656.352 1.054.926 1.054"/>
  </g>
  <defs>
    <clipPath id="a">
      <path fill="#fff" d="M2.086 2.084h23.906v23.918H2.086z"/>
    </clipPath>
  </defs>
</svg>
