<svg viewBox="0 0 29 29" fill="none" xmlns="http://www.w3.org/2000/svg">
  <g clip-path="url(#a)" fill="currentColor" fill-opacity=".85">
    <path d="M14.035 25.954c6.54 0 11.953-5.426 11.953-11.953 0-6.54-5.425-11.953-11.965-11.953C7.496 2.048 2.082 7.462 2.082 14c0 6.527 5.426 11.953 11.953 11.953m0-1.992A9.913 9.913 0 0 1 4.085 14c0-5.532 4.407-9.961 9.938-9.961A9.933 9.933 0 0 1 23.996 14a9.923 9.923 0 0 1-9.96 9.962"/>
    <path d="M7.906 15.266h6.117c.457 0 .82-.351.82-.82V6.548a.805.805 0 0 0-.82-.809.796.796 0 0 0-.808.809v7.09H7.906a.8.8 0 0 0-.82.808.8.8 0 0 0 .82.82"/>
  </g>
  <defs>
    <clipPath id="a">
      <path fill="#fff" d="M2.082 2.048h23.906v23.918H2.082z"/>
    </clipPath>
  </defs>
</svg>
