<svg viewBox="0 0 93 93" fill="none" xmlns="http://www.w3.org/2000/svg">
<path d="M46.5 83.7C66.96 83.7 83.7 66.96 83.7 46.5C83.7 26.04 66.96 9.3 46.5 9.3C26.04 9.3 9.3 26.04 9.3 46.5C9.3 66.96 26.04 83.7 46.5 83.7ZM46.5 0C72.075 0 93 20.925 93 46.5C93 72.075 72.075 93 46.5 93C20.925 93 0 72.075 0 46.5C0 20.925 20.925 0 46.5 0ZM48.825 49.0713C48.825 49.7826 48.4472 50.4404 47.8327 50.7988L28.3476 62.1651C27.3497 62.7472 26.0676 62.3653 25.551 61.332L24.0938 58.4177C23.6201 57.4701 23.9674 56.3175 24.8858 55.7894L40.8469 46.6118C41.4675 46.255 41.85 45.5937 41.85 44.8779V25.25C41.85 24.1454 42.7454 23.25 43.85 23.25H46.825C47.9296 23.25 48.825 24.1454 48.825 25.25V49.0713Z" fill="#FFFCF0"/>
</svg>
