<svg width="30" height="30" viewBox="0 0 125 125" fill="none" xmlns="http://www.w3.org/2000/svg">
<circle cx="62.5" cy="62.5" r="62.5" fill="url(#paint0_radial_0_1)"/>
<path d="M62.7094 99.4188C82.7917 99.4188 99.4188 82.7558 99.4188 62.7094C99.4188 42.6272 82.7558 26 62.6735 26C42.6272 26 26 42.6272 26 62.7094C26 82.7558 42.6632 99.4188 62.7094 99.4188ZM62.7094 93.3008C45.7224 93.3008 32.1542 79.6967 32.1542 62.7094C32.1542 45.7224 45.6864 32.1183 62.6735 32.1183C79.6607 32.1183 93.3008 45.7224 93.3008 62.7094C93.3008 79.6967 79.6967 93.3008 62.7094 93.3008Z" fill="#FFFCF0"/>
<path d="M53.2807 79.1923C55.1522 79.1923 56.1958 77.9688 56.1958 75.9532V68.4673L60.5865 63.9328L71.0956 77.7888C71.8155 78.7605 72.5713 79.1923 73.5789 79.1923C75.1983 79.1923 76.35 78.0406 76.35 76.4931C76.35 75.7732 76.0622 74.9815 75.5223 74.2979L64.7973 60.2257L74.6587 50.0767C75.3064 49.3929 75.5582 48.7811 75.5582 47.9893C75.5582 46.6577 74.4066 45.542 72.9309 45.542C72.0314 45.542 71.4196 45.8659 70.5916 46.6937L56.4118 61.1615H56.1958V48.7811C56.1958 46.7656 55.1522 45.542 53.2807 45.542C51.5172 45.542 50.4375 46.7656 50.4375 48.7811V75.9532C50.4375 77.9688 51.5172 79.1923 53.2807 79.1923Z" fill="#FFFCF0"/>
<defs>
<radialGradient id="paint0_radial_0_1" cx="0" cy="0" r="1" gradientUnits="userSpaceOnUse" gradientTransform="translate(62.5 62.5) scale(70.8008 53.6581)">
<stop stop-color="#D9D9D9"/>
<stop offset="0.39" stop-color="#D5D4D8" stop-opacity="0.85"/>
<stop offset="1" stop-color="#BBBACF" stop-opacity="0"/>
</radialGradient>
</defs>
</svg>
