<svg  viewBox="0 0 99 99" fill="none" xmlns="http://www.w3.org/2000/svg">
<path d="M4.125 34.3747C4.125 33.0375 4.65617 31.7552 5.60167 30.8097C6.54717 29.8642 7.82953 29.333 9.16667 29.333H89.8333C91.1705 29.333 92.4528 29.8642 93.3983 30.8097C94.3438 31.7552 94.875 33.0375 94.875 34.3747V44.458C94.875 45.7951 94.3438 47.0775 93.3983 48.023C92.4528 48.9685 91.1705 49.4997 89.8333 49.4997H9.16667C7.82953 49.4997 6.54717 48.9685 5.60167 48.023C4.65617 47.0775 4.125 45.7951 4.125 44.458V34.3747Z" stroke="#FFFCF0" stroke-width="8" stroke-linecap="round" stroke-linejoin="round"/>
<path d="M49.5 29.333V94.8747" stroke="#FFFCF0" stroke-width="8" stroke-linecap="round" stroke-linejoin="round"/>
<path d="M84.7923 49.5V84.7917C84.7923 87.4659 83.73 90.0307 81.839 91.9217C79.948 93.8126 77.3832 94.875 74.709 94.875H24.2923C21.6181 94.875 19.0533 93.8126 17.1623 91.9217C15.2713 90.0307 14.209 87.4659 14.209 84.7917V49.5" stroke="#FFFCF0" stroke-width="8" stroke-linecap="round" stroke-linejoin="round"/>
<path d="M26.8132 29.3355C23.4703 29.3355 20.2644 28.0076 17.9007 25.6439C15.5369 23.2801 14.209 20.0742 14.209 16.7314C14.209 13.3885 15.5369 10.1826 17.9007 7.81888C20.2644 5.45514 23.4703 4.1272 26.8132 4.1272C31.6768 4.04247 36.4429 6.4023 40.4899 10.899C44.5369 15.3956 47.677 21.8204 49.5006 29.3355C51.3243 21.8204 54.4644 15.3956 58.5114 10.899C62.5584 6.4023 67.3245 4.04247 72.1881 4.1272C75.531 4.1272 78.7369 5.45514 81.1006 7.81888C83.4644 10.1826 84.7923 13.3885 84.7923 16.7314C84.7923 20.0742 83.4644 23.2801 81.1006 25.6439C78.7369 28.0076 75.531 29.3355 72.1881 29.3355" stroke="#FFFCF0" stroke-width="8" stroke-linecap="round" stroke-linejoin="round"/>
</svg>

